# xmcd
#
# Track frame offsets: 
#        150
#        29086
#        49318
#        75732
#        93175
#        124671
#        143823
#        164469
#
# Disc length: 2448 seconds
#
# Revision: 0
# Processed by: cddbd v1.5.2PL0 Copyright (c) Steve Scherf et al.
# Submitted via: ExactAudioCopyFreeDBPlugin 1.0
#
DISCID=68098e08
DTITLE=Roger Troutman - The Saga Continues...
DYEAR=1984
DGENRE=Soul
TTITLE0=In the Mix
TTITLE1=Play Your Guitar, Brother Roger
TTITLE2=The Break Song
TTITLE3=I Keep Trying
TTITLE4=In the Midnight Hour
TTITLE5=Bucket of Blood
TTITLE6=T. C. Song
TTITLE7=Girl, Cut It Out
EXTD=
EXTT0=
EXTT1=
EXTT2=
EXTT3=
EXTT4=
EXTT5=
EXTT6=
EXTT7=
PLAYORDER=
